<svg width="30" height="30" viewBox="0 0 30 30" fill="none" xmlns="http://www.w3.org/2000/svg">
<g clip-path="url(#clip0_69_21)">
<path d="M15.005 7.29761C10.7512 7.29761 7.3075 10.7451 7.3075 14.9951C7.3075 19.2489 10.755 22.6926 15.005 22.6926C19.2587 22.6926 22.7025 19.2451 22.7025 14.9951C22.7025 10.7414 19.255 7.29761 15.005 7.29761ZM15.005 19.9914C12.2437 19.9914 10.0087 17.7551 10.0087 14.9951C10.0087 12.2351 12.245 9.99886 15.005 9.99886C17.765 9.99886 20.0012 12.2351 20.0012 14.9951C20.0025 17.7551 17.7662 19.9914 15.005 19.9914Z" fill="#1C1C1C"/>
<path d="M21.185 0.0949658C18.425 -0.0337843 11.5888 -0.0275343 8.82629 0.0949658C6.39879 0.208716 4.25754 0.794966 2.53129 2.52122C-0.35371 5.40622 0.0150399 9.29372 0.0150399 14.995C0.0150399 20.83 -0.30996 24.6275 2.53129 27.4687C5.42754 30.3637 9.37129 29.985 15.005 29.985C20.785 29.985 22.78 29.9887 24.8238 29.1975C27.6025 28.1187 29.7 25.635 29.905 21.1737C30.035 18.4125 30.0275 11.5775 29.905 8.81497C29.6575 3.54872 26.8313 0.354966 21.185 0.0949658ZM25.5538 25.56C23.6625 27.4512 21.0388 27.2825 14.9688 27.2825C8.71879 27.2825 6.21254 27.375 4.38379 25.5412C2.27754 23.445 2.65879 20.0787 2.65879 14.975C2.65879 8.06872 1.95004 3.09497 8.88129 2.73997C10.4738 2.68372 10.9425 2.66497 14.9513 2.66497L15.0075 2.70247C21.6688 2.70247 26.895 2.00497 27.2088 8.93497C27.28 10.5162 27.2963 10.9912 27.2963 14.9937C27.295 21.1712 27.4125 23.6925 25.5538 25.56Z" fill="#1C1C1C"/>
<path d="M23.0075 8.79257C24.0009 8.79257 24.8062 7.98724 24.8062 6.99382C24.8062 6.0004 24.0009 5.19507 23.0075 5.19507C22.0141 5.19507 21.2087 6.0004 21.2087 6.99382C21.2087 7.98724 22.0141 8.79257 23.0075 8.79257Z" fill="#1C1C1C"/>
</g>
<defs>
<clipPath id="clip0_69_21">
<rect width="30" height="30" fill="white"/>
</clipPath>
</defs>
</svg>
