<svg width="31" height="18" viewBox="0 0 31 18" fill="none" xmlns="http://www.w3.org/2000/svg">
<g clip-path="url(#clip0_69_26)">
<path d="M27.415 17.4277C26.7899 17.4269 26.1759 17.2641 25.6344 16.9557C25.0929 16.6472 24.6428 16.2039 24.3291 15.67L22.1393 11.9253L25.5073 6.16507C25.7919 5.67821 25.9817 5.14301 26.0667 4.58716L30.4925 12.1566C30.8045 12.6906 30.9688 13.2961 30.9689 13.9125C30.969 14.5289 30.8049 15.1345 30.4932 15.6686C30.1813 16.2026 29.7328 16.6463 29.1925 16.955C28.6522 17.2638 28.0392 17.4268 27.415 17.4277Z" fill="#1858CD"/>
<path d="M4.04995 17.5104C3.42566 17.5096 2.81257 17.3467 2.27221 17.0379C1.73185 16.7292 1.28324 16.2855 0.971404 15.7515C0.659569 15.2174 0.495479 14.6118 0.495606 13.9953C0.495736 13.3788 0.660076 12.7732 0.972132 12.2393L6.6967 2.44829C6.7014 2.44033 6.70579 2.43228 6.70998 2.42408C6.99946 1.85899 7.43817 1.38164 7.9798 1.04253C8.52139 0.703423 9.14574 0.51515 9.78681 0.497626C10.4279 0.480102 11.0618 0.633981 11.6216 0.942983C12.1814 1.25199 12.6462 1.70463 12.9668 2.25305L15.2984 6.24095C15.3417 6.3151 15.4041 6.37672 15.4793 6.41955C15.5544 6.46238 15.6396 6.48495 15.7264 6.48495C15.8131 6.48495 15.8983 6.46238 15.9734 6.41959C16.0485 6.37675 16.1109 6.31518 16.1543 6.24099L18.4908 2.24533C18.7241 1.84554 19.035 1.49512 19.4056 1.21409C19.7762 0.93307 20.1993 0.726964 20.6507 0.60757C21.102 0.488177 21.5729 0.457839 22.0361 0.518289C22.4993 0.578743 22.946 0.728799 23.3504 0.959875C23.8241 1.22859 24.2278 1.6026 24.5296 2.05223C24.5521 2.08525 24.573 2.11642 24.5929 2.14844C24.6115 2.1779 24.6283 2.20582 24.6451 2.23404C24.6537 2.25034 24.6622 2.26444 24.6701 2.27659C24.6701 2.27659 24.6979 2.32406 24.6984 2.32506C24.9895 2.85324 25.1383 3.44646 25.1303 4.04776C25.1224 4.64907 24.9581 5.23826 24.6532 5.75882L18.8219 15.7323C18.409 16.4374 17.7613 16.9793 16.9891 17.2655C16.9833 17.2674 16.9665 17.2737 16.9644 17.2745C16.9356 17.2856 16.9062 17.2953 16.8772 17.3051L16.8613 17.3104C16.8283 17.3212 16.7945 17.3325 16.7607 17.3421C15.991 17.5758 15.1637 17.5447 14.4143 17.2539C13.6648 16.9631 13.0374 16.4297 12.6348 15.7411L10.3172 11.7758C10.2738 11.7016 10.2114 11.64 10.1363 11.5972C10.0611 11.5544 9.97593 11.5318 9.88918 11.5318H9.88914C9.80239 11.5318 9.71718 11.5543 9.64205 11.5971C9.56696 11.64 9.50457 11.7016 9.46119 11.7757L7.13552 15.7528C6.82196 16.2868 6.37195 16.7302 5.83048 17.0386C5.289 17.347 4.67505 17.5097 4.04995 17.5104Z" fill="black"/>
</g>
<defs>
<clipPath id="clip0_69_26">
<rect width="31" height="18" fill="white"/>
</clipPath>
</defs>
</svg>
