<svg width="30" height="30" viewBox="0 0 30 30" fill="none" xmlns="http://www.w3.org/2000/svg">
<g clip-path="url(#clip0_1008_204)">
<path d="M21.8839 17.8837L21.8727 17.9775C19.1239 16.6075 18.8364 16.425 18.4814 16.9575C18.2352 17.3262 17.5177 18.1625 17.3014 18.41C17.0827 18.6537 16.8652 18.6725 16.4939 18.5037C16.1189 18.3162 14.9152 17.9225 13.4902 16.6475C12.3802 15.6537 11.6352 14.435 11.4152 14.06C11.0489 13.4275 11.8152 13.3375 12.5127 12.0175C12.6377 11.755 12.5739 11.5487 12.4814 11.3625C12.3877 11.175 11.6414 9.33747 11.3289 8.60497C11.0289 7.87497 10.7202 7.96747 10.4889 7.96747C9.76892 7.90497 9.24267 7.91497 8.77892 8.39747C6.76142 10.615 7.27017 12.9025 8.99642 15.335C12.3889 19.775 14.1964 20.5925 17.5014 21.7275C18.3939 22.0112 19.2077 21.9712 19.8514 21.8787C20.5689 21.765 22.0602 20.9775 22.3714 20.0962C22.6902 19.215 22.6902 18.4837 22.5964 18.315C22.5039 18.1462 22.2589 18.0525 21.8839 17.8837Z" fill="white"/>
<path d="M25.65 4.31081C16.0388 -4.98044 0.1325 1.75831 0.12625 14.8658C0.12625 17.4858 0.8125 20.0408 2.12 22.2971L0 29.9996L7.91875 27.9346C17.8 33.2721 29.995 26.1846 30 14.8733C30 10.9033 28.45 7.16706 25.6312 4.35956L25.65 4.31081ZM27.5025 14.8321C27.495 24.3733 17.0212 30.3321 8.7375 25.4621L8.2875 25.1946L3.6 26.4133L4.85625 21.8571L4.5575 21.3883C-0.5975 13.1821 5.325 2.45706 15.09 2.45706C18.4075 2.45706 21.5213 3.75081 23.8663 6.09456C26.21 8.41831 27.5025 11.5321 27.5025 14.8321Z" fill="white"/>
</g>
<defs>
<clipPath id="clip0_1008_204">
<rect width="30" height="30" fill="white"/>
</clipPath>
</defs>
</svg>
