<svg width="30" height="30" viewBox="0 0 30 30" fill="none" xmlns="http://www.w3.org/2000/svg">
<g clip-path="url(#clip0_69_14)">
<path d="M29.3363 7.41127L29.3738 7.65627C29.0113 6.37002 28.0325 5.37752 26.7887 5.01627L26.7625 5.01002C24.4237 4.37502 15.0125 4.37502 15.0125 4.37502C15.0125 4.37502 5.625 4.36252 3.2625 5.01002C1.995 5.37752 1.015 6.37002 0.658752 7.63002L0.652502 7.65627C-0.221248 12.22 -0.227499 17.7038 0.691252 22.59L0.652502 22.3425C1.015 23.6288 1.99375 24.6213 3.2375 24.9825L3.26375 24.9888C5.6 25.625 15.0138 25.625 15.0138 25.625C15.0138 25.625 24.4 25.625 26.7638 24.9888C28.0325 24.6213 29.0125 23.6288 29.3688 22.3688L29.375 22.3425C29.7725 20.22 30 17.7775 30 15.2825C30 15.1913 30 15.0988 29.9988 15.0063C30 14.9213 30 14.82 30 14.7188C30 12.2225 29.7725 9.78002 29.3363 7.41127ZM12.01 19.5638V10.4475L19.8425 15.0125L12.01 19.5638Z" fill="black"/>
</g>
<defs>
<clipPath id="clip0_69_14">
<rect width="30" height="30" fill="white"/>
</clipPath>
</defs>
</svg>
